<svg width="52" height="52" viewBox="0 0 52 52" fill="none" xmlns="http://www.w3.org/2000/svg">
<g id="danger">
<rect width="52" height="52" rx="26" fill="#FFECEB"/>
<path id="Vector" d="M15.2289 35.8492C15.7517 36.6872 16.6589 37.1947 17.6507 37.1947H35.7948C36.7866 37.1947 37.6938 36.6872 38.2166 35.8492C38.7317 35.0035 38.7778 33.9656 38.3396 33.0815L29.2598 14.9297C28.7755 13.9687 27.8068 13.3613 26.7228 13.3613C25.6388 13.3613 24.67 13.9687 24.1857 14.9297L15.1059 33.0815C14.6677 33.9733 14.7138 35.0035 15.2289 35.8492ZM27.876 21.0187V28.3456C27.876 28.9837 27.3609 29.4988 26.7228 29.4988C26.0846 29.4988 25.5695 28.9837 25.5695 28.3456V21.0187C25.5695 20.3806 26.0846 19.8655 26.7228 19.8655C27.3609 19.8655 27.876 20.3806 27.876 21.0187ZM25.5695 32.551V31.713C25.5695 31.0749 26.0846 30.5598 26.7228 30.5598C27.3609 30.5598 27.876 31.0749 27.876 31.713V32.551C27.876 33.1814 27.3609 33.7042 26.7228 33.7042C26.0846 33.7042 25.5695 33.1814 25.5695 32.551Z" fill="#F04438"/>
</g>
</svg>
