<svg width="100" height="100" viewBox="0 0 100 100" fill="none" xmlns="http://www.w3.org/2000/svg">
<g clip-path="url(#clip0_2902_3511)">
<circle cx="50" cy="50" r="50" fill="white"/>
<path d="M82.808 54.5084L74.3223 41.534C74.1131 41.2176 73.8313 40.958 73.5012 40.7779C73.1712 40.5978 72.8029 40.5027 72.4286 40.5008H60.9543V39.4175C60.9534 38.5125 60.6003 37.645 59.9725 37.0051C59.3447 36.3652 58.4935 36.0053 57.6057 36.0044H55.4114C55.1083 36.0044 54.8176 36.1271 54.6033 36.3456C54.389 36.564 54.2686 36.8603 54.2686 37.1693C54.2686 37.4782 54.389 37.7745 54.6033 37.993C54.8176 38.2114 55.1083 38.3341 55.4114 38.3341H57.6057C57.8865 38.3378 58.1548 38.4531 58.3533 38.6554C58.5519 38.8578 58.665 39.1313 58.6686 39.4175V67.4675H37.3154C37.0481 65.9973 36.2842 64.6688 35.1563 63.7126C34.0284 62.7565 32.6076 62.233 31.1406 62.233C29.6735 62.233 28.2528 62.7565 27.1249 63.7126C25.9969 64.6688 25.233 65.9973 24.9657 67.4675H22.3486C22.0683 67.4688 21.799 67.3566 21.5997 67.1557C21.4005 66.9548 21.2875 66.6815 21.2857 66.3959V39.4175C21.2893 39.1313 21.4024 38.8578 21.6009 38.6554C21.7995 38.4531 22.0678 38.3378 22.3486 38.3341H24.5543C24.8574 38.3341 25.1481 38.2114 25.3624 37.993C25.5767 37.7745 25.6971 37.4782 25.6971 37.1693C25.6971 36.8603 25.5767 36.564 25.3624 36.3456C25.1481 36.1271 24.8574 36.0044 24.5543 36.0044H22.3486C21.4608 36.0053 20.6096 36.3652 19.9818 37.0051C19.354 37.645 19.0009 38.5125 19 39.4175V66.3959C19.0024 67.2992 19.3564 68.1647 19.9841 68.8024C20.6119 69.4401 21.4623 69.7979 22.3486 69.7973H24.9634C26.2503 76.7201 36.0309 76.7294 37.3177 69.7973C41.8229 69.7961 61.7097 69.7973 65.7954 69.8019C66.0722 71.2654 66.8405 72.5848 67.9682 73.5334C69.096 74.4821 70.5127 75.0006 71.9749 74.9999C73.4371 74.9992 74.8534 74.4794 75.9803 73.5297C77.1072 72.58 77.8743 71.2598 78.1497 69.7961H79.6514C80.5377 69.7967 81.3881 69.4389 82.0159 68.8013C82.6436 68.1636 82.9976 67.2981 83 66.3947V55.1537C82.9998 54.924 82.933 54.6995 82.808 54.5084ZM31.1406 72.7164C30.0797 72.7164 29.0623 72.2869 28.3121 71.5223C27.562 70.7577 27.1406 69.7207 27.1406 68.6394C27.1406 67.5581 27.562 66.5211 28.3121 65.7565C29.0623 64.9919 30.0797 64.5624 31.1406 64.5624C32.2014 64.5624 33.2189 64.9919 33.969 65.7565C34.7191 66.5211 35.1406 67.5581 35.1406 68.6394C35.1406 69.7207 34.7191 70.7577 33.969 71.5223C33.2189 72.2869 32.2014 72.7164 31.1406 72.7164ZM68.12 42.834L72.4274 42.8364L79.9131 54.28H71.5486C70.6395 54.2791 69.768 53.9106 69.1252 53.2555C68.4824 52.6003 68.1209 51.712 68.12 50.7854V42.834ZM71.9714 72.7164C70.9106 72.7164 69.8932 72.2869 69.143 71.5223C68.3929 70.7577 67.9714 69.7207 67.9714 68.6394C67.9714 67.5581 68.3929 66.5211 69.143 65.7565C69.8932 64.9919 70.9106 64.5624 71.9714 64.5624C73.0323 64.5624 74.0497 64.9919 74.7999 65.7565C75.55 66.5211 75.9714 67.5581 75.9714 68.6394C75.9714 69.7207 75.55 70.7577 74.7999 71.5223C74.0497 72.2869 73.0323 72.7164 71.9714 72.7164ZM80.7143 66.3959C80.7125 66.6815 80.5995 66.9548 80.4003 67.1557C80.201 67.3566 79.9317 67.4688 79.6514 67.4675H78.1474C77.8802 65.9967 77.116 64.6677 75.9876 63.7113C74.8591 62.7549 73.4377 62.2316 71.9701 62.2322C70.5025 62.2327 69.0815 62.7571 67.9537 63.7144C66.826 64.6716 66.0627 66.0012 65.7966 67.4722H60.9543V42.8305L65.8343 42.8329V50.7854C65.8361 52.3296 66.4387 53.81 67.51 54.9018C68.5812 55.9937 70.0336 56.6079 71.5486 56.6098H80.7143V66.3959Z" fill="#171B1B"/>
<path d="M34.7257 38.3328H38.8343V42.5205C38.8343 42.8295 38.9547 43.1258 39.169 43.3442C39.3833 43.5627 39.674 43.6854 39.9771 43.6854C40.2802 43.6854 40.5709 43.5627 40.7852 43.3442C40.9996 43.1258 41.12 42.8295 41.12 42.5205V38.3328H45.2274C45.5305 38.3328 45.8212 38.2101 46.0355 37.9916C46.2499 37.7732 46.3703 37.4769 46.3703 37.168C46.3703 36.859 46.2499 36.5627 46.0355 36.3443C45.8212 36.1258 45.5305 36.0031 45.2274 36.0031H41.12V31.8177C41.12 31.5088 40.9996 31.2125 40.7852 30.994C40.5709 30.7756 40.2802 30.6528 39.9771 30.6528C39.674 30.6528 39.3833 30.7756 39.169 30.994C38.9547 31.2125 38.8343 31.5088 38.8343 31.8177V36.0042H34.7268C34.4237 36.0042 34.133 36.127 33.9187 36.3454C33.7044 36.5639 33.584 36.8602 33.584 37.1691C33.584 37.4781 33.7044 37.7743 33.9187 37.9928C34.133 38.2113 34.4237 38.334 34.7268 38.334L34.7257 38.3328Z" fill="#171B1B"/>
<path d="M39.9775 49.3989C43.159 49.3952 46.2092 48.1054 48.4588 45.8124C50.7085 43.5194 51.9739 40.4106 51.9775 37.1678C51.3193 20.9412 28.6347 20.947 27.9775 37.1678C27.9812 40.4106 29.2466 43.5194 31.4963 45.8124C33.7459 48.1054 36.7961 49.3952 39.9775 49.3989ZM39.9775 27.2664C42.553 27.2695 45.0221 28.3137 46.8432 30.1699C48.6644 32.0261 49.6888 34.5427 49.6918 37.1678C49.2038 50.2854 30.7501 50.2819 30.2633 37.1678C30.2663 34.5427 31.2907 32.0261 33.1118 30.1699C34.933 28.3137 37.4021 27.2695 39.9775 27.2664Z" fill="#171B1B"/>
</g>
<defs>
<clipPath id="clip0_2902_3511">
<rect width="100" height="100" fill="white"/>
</clipPath>
</defs>
</svg>
