<svg width="20" height="20" viewBox="0 0 20 20" fill="none" xmlns="http://www.w3.org/2000/svg">
<g id="eye-off">
<path id="Icon" d="M8.79714 5.11042C9.24549 5.00547 9.70453 4.95301 10.165 4.95409C14.7245 4.95409 17.33 10.165 17.33 10.165C16.9346 10.9047 16.4631 11.6011 15.9231 12.2428M11.5459 11.5459C11.367 11.7379 11.1513 11.8919 10.9116 11.9987C10.6719 12.1055 10.4131 12.1629 10.1507 12.1675C9.88835 12.1722 9.62773 12.1239 9.38441 12.0256C9.14109 11.9273 8.92006 11.7811 8.73451 11.5955C8.54895 11.4099 8.40267 11.1889 8.30439 10.9456C8.2061 10.7023 8.15784 10.4416 8.16247 10.1793C8.1671 9.91689 8.22453 9.65814 8.33133 9.41844C8.43813 9.17874 8.59212 8.963 8.78411 8.78411M3 3L17.33 17.33M14.0341 14.0341C12.9207 14.8828 11.5649 15.353 10.165 15.3759C5.60545 15.3759 3 10.165 3 10.165C3.81022 8.65507 4.93399 7.33587 6.2959 6.2959L14.0341 14.0341Z" stroke="#A2ACC0" stroke-width="1.67" stroke-linecap="round" stroke-linejoin="round"/>
</g>
</svg>
