<svg width="44" height="44" viewBox="0 0 44 44" fill="none" xmlns="http://www.w3.org/2000/svg">
<g id="more-vertical" filter="url(#filter0_d_2307_4676)">
<path d="M2 5C2 2.79086 3.79086 1 6 1H38C40.2091 1 42 2.79086 42 5V37C42 39.2091 40.2091 41 38 41H6C3.79086 41 2 39.2091 2 37V5Z" fill="white"/>
<path d="M2.5 5C2.5 3.067 4.067 1.5 6 1.5H38C39.933 1.5 41.5 3.067 41.5 5V37C41.5 38.933 39.933 40.5 38 40.5H6C4.067 40.5 2.5 38.933 2.5 37V5Z" stroke="#D0D5DD"/>
<g id="Icon">
<path d="M21.6667 23C22.5871 23 23.3333 22.2538 23.3333 21.3333C23.3333 20.4129 22.5871 19.6667 21.6667 19.6667C20.7462 19.6667 20 20.4129 20 21.3333C20 22.2538 20.7462 23 21.6667 23Z" fill="#171B1B"/>
<path d="M21.6667 14.3333C22.5871 14.3333 23.3333 13.5871 23.3333 12.6667C23.3333 11.7462 22.5871 11 21.6667 11C20.7462 11 20 11.7462 20 12.6667C20 13.5871 20.7462 14.3333 21.6667 14.3333Z" fill="#171B1B"/>
<path d="M21.6667 31.6667C22.5871 31.6667 23.3333 30.9205 23.3333 30C23.3333 29.0795 22.5871 28.3333 21.6667 28.3333C20.7462 28.3333 20 29.0795 20 30C20 30.9205 20.7462 31.6667 21.6667 31.6667Z" fill="#171B1B"/>
<path d="M21.6667 23C22.5871 23 23.3333 22.2538 23.3333 21.3333C23.3333 20.4129 22.5871 19.6667 21.6667 19.6667C20.7462 19.6667 20 20.4129 20 21.3333C20 22.2538 20.7462 23 21.6667 23Z" stroke="#171B1B" stroke-width="1.5" stroke-linecap="round" stroke-linejoin="round"/>
<path d="M21.6667 14.3333C22.5871 14.3333 23.3333 13.5871 23.3333 12.6667C23.3333 11.7462 22.5871 11 21.6667 11C20.7462 11 20 11.7462 20 12.6667C20 13.5871 20.7462 14.3333 21.6667 14.3333Z" stroke="#171B1B" stroke-width="1.5" stroke-linecap="round" stroke-linejoin="round"/>
<path d="M21.6667 31.6667C22.5871 31.6667 23.3333 30.9205 23.3333 30C23.3333 29.0795 22.5871 28.3333 21.6667 28.3333C20.7462 28.3333 20 29.0795 20 30C20 30.9205 20.7462 31.6667 21.6667 31.6667Z" stroke="#171B1B" stroke-width="1.5" stroke-linecap="round" stroke-linejoin="round"/>
</g>
</g>
<defs>
<filter id="filter0_d_2307_4676" x="0" y="0" width="44" height="44" filterUnits="userSpaceOnUse" color-interpolation-filters="sRGB">
<feFlood flood-opacity="0" result="BackgroundImageFix"/>
<feColorMatrix in="SourceAlpha" type="matrix" values="0 0 0 0 0 0 0 0 0 0 0 0 0 0 0 0 0 0 127 0" result="hardAlpha"/>
<feOffset dy="1"/>
<feGaussianBlur stdDeviation="1"/>
<feColorMatrix type="matrix" values="0 0 0 0 0.0627451 0 0 0 0 0.0941176 0 0 0 0 0.156863 0 0 0 0.05 0"/>
<feBlend mode="normal" in2="BackgroundImageFix" result="effect1_dropShadow_2307_4676"/>
<feBlend mode="normal" in="SourceGraphic" in2="effect1_dropShadow_2307_4676" result="shape"/>
</filter>
</defs>
</svg>
