<svg width="90" height="90" viewBox="0 0 90 90" fill="none" xmlns="http://www.w3.org/2000/svg">
<path d="M84.1387 50.4411L73.6973 34.7783C73.44 34.3962 73.0932 34.0828 72.687 33.8655C72.2809 33.6481 71.8278 33.5332 71.3672 33.5309H57.2484V32.2231C57.2473 31.1307 56.8129 30.0833 56.0404 29.3108C55.2679 28.5384 54.2206 28.1039 53.1281 28.1028H50.4281C50.0552 28.1028 49.6975 28.2509 49.4338 28.5147C49.17 28.7784 49.0219 29.1361 49.0219 29.509C49.0219 29.882 49.17 30.2397 49.4338 30.5034C49.6975 30.7671 50.0552 30.9153 50.4281 30.9153H53.1281C53.4736 30.9197 53.8037 31.0589 54.048 31.3032C54.2924 31.5475 54.4316 31.8776 54.4359 32.2231V66.0856H28.1616C27.8326 64.3107 26.8927 62.7069 25.5048 61.5526C24.1169 60.3983 22.3687 59.7663 20.5636 59.7663C18.7584 59.7663 17.0103 60.3983 15.6224 61.5526C14.2345 62.7069 13.2946 64.3107 12.9656 66.0856H9.74531C9.40043 66.0871 9.06905 65.9517 8.82387 65.7092C8.57868 65.4666 8.43973 65.1367 8.4375 64.7918V32.2231C8.44187 31.8776 8.58106 31.5475 8.82539 31.3032C9.06971 31.0589 9.39982 30.9197 9.74531 30.9153H12.4594C12.8323 30.9153 13.19 30.7671 13.4537 30.5034C13.7175 30.2397 13.8656 29.882 13.8656 29.509C13.8656 29.1361 13.7175 28.7784 13.4537 28.5147C13.19 28.2509 12.8323 28.1028 12.4594 28.1028H9.74531C8.65288 28.1039 7.60551 28.5384 6.83304 29.3108C6.06058 30.0833 5.62612 31.1307 5.625 32.2231V64.7918C5.62798 65.8824 6.06349 66.9273 6.83595 67.6971C7.60842 68.4669 8.65474 68.8988 9.74531 68.8981H12.9628C14.5463 77.2554 26.5809 77.2667 28.1644 68.8981C33.7078 68.8967 58.178 68.8981 63.2053 68.9037C63.5458 70.6704 64.4912 72.2633 65.8789 73.4084C67.2665 74.5536 69.0098 75.1796 70.809 75.1788C72.6082 75.178 74.3509 74.5504 75.7375 73.4039C77.1241 72.2574 78.068 70.6637 78.4069 68.8967H80.2547C81.3453 68.8974 82.3916 68.4655 83.164 67.6957C83.9365 66.9258 84.372 65.881 84.375 64.7904V51.2201C84.3748 50.9428 84.2926 50.6718 84.1387 50.4411ZM20.5636 72.4222C19.2582 72.4222 18.0063 71.9036 17.0833 70.9806C16.1603 70.0575 15.6417 68.8056 15.6417 67.5003C15.6417 66.1949 16.1603 64.943 17.0833 64.02C18.0063 63.097 19.2582 62.5784 20.5636 62.5784C21.869 62.5784 23.1209 63.097 24.0439 64.02C24.9669 64.943 25.4855 66.1949 25.4855 67.5003C25.4855 68.8056 24.9669 70.0575 24.0439 70.9806C23.1209 71.9036 21.869 72.4222 20.5636 72.4222ZM66.0656 36.3476L71.3658 36.3504L80.5767 50.1654H70.2844C69.1658 50.1643 68.0934 49.7195 67.3025 48.9286C66.5116 48.1376 66.0667 47.0652 66.0656 45.9467V36.3476ZM70.8047 72.4222C69.4993 72.4222 68.2474 71.9036 67.3244 70.9806C66.4014 70.0575 65.8828 68.8056 65.8828 67.5003C65.8828 66.1949 66.4014 64.943 67.3244 64.02C68.2474 63.097 69.4993 62.5784 70.8047 62.5784C72.11 62.5784 73.3619 63.097 74.285 64.02C75.208 64.943 75.7266 66.1949 75.7266 67.5003C75.7266 68.8056 75.208 70.0575 74.285 70.9806C73.3619 71.9036 72.11 72.4222 70.8047 72.4222ZM81.5625 64.7918C81.5603 65.1367 81.4213 65.4666 81.1761 65.7092C80.931 65.9517 80.5996 66.0871 80.2547 66.0856H78.4041C78.0752 64.31 77.1349 62.7056 75.7464 61.551C74.3579 60.3965 72.6089 59.7647 70.803 59.7654C68.9972 59.766 67.2487 60.3991 65.861 61.5547C64.4734 62.7103 63.5342 64.3154 63.2067 66.0912H57.2484V36.3434L63.2531 36.3462V45.9467C63.2554 47.8108 63.9969 49.5979 65.315 50.9161C66.6331 52.2342 68.4203 52.9757 70.2844 52.9779H81.5625V64.7918Z" fill="#0C97E6"/>
<path d="M24.9752 30.9135H30.0306V35.969C30.0306 36.3419 30.1788 36.6996 30.4425 36.9633C30.7062 37.2271 31.0639 37.3752 31.4369 37.3752C31.8098 37.3752 32.1675 37.2271 32.4312 36.9633C32.695 36.6996 32.8431 36.3419 32.8431 35.969V30.9135H37.8972C38.2701 30.9135 38.6278 30.7653 38.8916 30.5016C39.1553 30.2379 39.3034 29.8802 39.3034 29.5072C39.3034 29.1343 39.1553 28.7766 38.8916 28.5129C38.6278 28.2492 38.2701 28.101 37.8972 28.101H32.8431V23.0483C32.8431 22.6754 32.695 22.3177 32.4312 22.054C32.1675 21.7902 31.8098 21.6421 31.4369 21.6421C31.0639 21.6421 30.7062 21.7902 30.4425 22.054C30.1788 22.3177 30.0306 22.6754 30.0306 23.0483V28.1024H24.9766C24.6036 28.1024 24.2459 28.2506 23.9822 28.5143C23.7185 28.778 23.5703 29.1357 23.5703 29.5087C23.5703 29.8816 23.7185 30.2393 23.9822 30.503C24.2459 30.7667 24.6036 30.9149 24.9766 30.9149L24.9752 30.9135Z" fill="#0C97E6"/>
<path d="M31.4375 44.2727C35.3522 44.2682 39.1053 42.7111 41.8734 39.943C44.6416 37.1748 46.1987 33.4217 46.2031 29.507C45.3931 9.91797 17.4805 9.925 16.6719 29.507C16.6763 33.4217 18.2334 37.1748 21.0016 39.943C23.7697 42.7111 27.5228 44.2682 31.4375 44.2727ZM31.4375 17.5539C34.6065 17.5576 37.6447 18.8182 39.8855 21.059C42.1264 23.2998 43.3869 26.338 43.3906 29.507C42.7902 45.3428 20.0834 45.3386 19.4844 29.507C19.4881 26.338 20.7486 23.2998 22.9895 21.059C25.2303 18.8182 28.2685 17.5576 31.4375 17.5539Z" fill="#0C97E6"/>
</svg>
