<svg width="121" height="24" viewBox="0 0 121 24" fill="none" xmlns="http://www.w3.org/2000/svg">
<path d="M28.9502 7.04688H32.5664C33.3229 7.04688 33.9723 7.16081 34.5146 7.38867C35.057 7.61654 35.474 7.95378 35.7656 8.40039C36.0573 8.84701 36.2031 9.39616 36.2031 10.0479C36.2031 10.5628 36.112 11.0094 35.9297 11.3877C35.7474 11.766 35.4899 12.0827 35.1572 12.3379C34.8291 12.5931 34.4417 12.7936 33.9951 12.9395L33.4072 13.2402H30.2148L30.2012 11.7568H32.5869C32.9743 11.7568 33.2956 11.6885 33.5508 11.5518C33.806 11.415 33.9974 11.2259 34.125 10.9844C34.2572 10.7428 34.3232 10.4671 34.3232 10.1572C34.3232 9.82454 34.2594 9.53743 34.1318 9.2959C34.0042 9.0498 33.8105 8.86068 33.5508 8.72852C33.291 8.59635 32.9629 8.53027 32.5664 8.53027H30.8301V17H28.9502V7.04688ZM34.5693 17L32.2656 12.543L34.2549 12.5361L36.5859 16.9043V17H34.5693ZM41.0361 17.1367C40.4756 17.1367 39.972 17.0456 39.5254 16.8633C39.0788 16.681 38.6982 16.4281 38.3838 16.1045C38.0739 15.7764 37.8346 15.3958 37.666 14.9629C37.502 14.5254 37.4199 14.056 37.4199 13.5547V13.2812C37.4199 12.7116 37.502 12.1943 37.666 11.7295C37.8301 11.2601 38.0625 10.8568 38.3633 10.5195C38.6641 10.1823 39.0241 9.92253 39.4434 9.74023C39.8626 9.55794 40.3252 9.4668 40.8311 9.4668C41.3551 9.4668 41.8177 9.55566 42.2188 9.7334C42.6198 9.90658 42.9548 10.1527 43.2236 10.4717C43.4925 10.7907 43.6953 11.1735 43.832 11.6201C43.9688 12.0622 44.0371 12.5521 44.0371 13.0898V13.8486H38.2402V12.6045H42.2598V12.4678C42.2507 12.1807 42.196 11.9186 42.0957 11.6816C41.9954 11.4401 41.8405 11.2487 41.6309 11.1074C41.4212 10.9616 41.1501 10.8887 40.8174 10.8887C40.5485 10.8887 40.3138 10.9479 40.1133 11.0664C39.9173 11.1803 39.7533 11.3444 39.6211 11.5586C39.4935 11.7682 39.3978 12.0189 39.334 12.3105C39.2702 12.6022 39.2383 12.9258 39.2383 13.2812V13.5547C39.2383 13.8646 39.2793 14.1517 39.3613 14.416C39.4479 14.6803 39.5732 14.9105 39.7373 15.1064C39.9059 15.2979 40.1064 15.4482 40.3389 15.5576C40.5758 15.6624 40.8447 15.7148 41.1455 15.7148C41.5238 15.7148 41.8656 15.6419 42.1709 15.4961C42.4808 15.3457 42.7497 15.1247 42.9775 14.833L43.8867 15.7764C43.7318 16.0042 43.5221 16.223 43.2578 16.4326C42.998 16.6423 42.6836 16.8132 42.3145 16.9453C41.9453 17.0729 41.5192 17.1367 41.0361 17.1367ZM45.3359 9.60352H47.1543V17.5469C47.1543 18.071 47.0586 18.5153 46.8672 18.8799C46.6803 19.2445 46.4092 19.5202 46.0537 19.707C45.6982 19.8939 45.263 19.9873 44.748 19.9873C44.5885 19.9873 44.429 19.9782 44.2695 19.96C44.11 19.9417 43.9528 19.9121 43.7979 19.8711L43.8047 18.4766C43.9049 18.4948 44.0075 18.5085 44.1123 18.5176C44.2171 18.5312 44.3219 18.5381 44.4268 18.5381C44.6227 18.5381 44.7868 18.5039 44.9189 18.4355C45.0557 18.3672 45.1582 18.2601 45.2266 18.1143C45.2995 17.9684 45.3359 17.7793 45.3359 17.5469V9.60352ZM45.1855 7.66895C45.1855 7.40007 45.2767 7.17676 45.459 6.99902C45.6458 6.82129 45.8965 6.73242 46.2109 6.73242C46.5254 6.73242 46.7738 6.82129 46.9561 6.99902C47.1429 7.17676 47.2363 7.40007 47.2363 7.66895C47.2363 7.93327 47.1429 8.1543 46.9561 8.33203C46.7738 8.50977 46.5254 8.59863 46.2109 8.59863C45.8965 8.59863 45.6458 8.50977 45.459 8.33203C45.2767 8.1543 45.1855 7.93327 45.1855 7.66895ZM52.1514 17.1367C51.5908 17.1367 51.0872 17.0456 50.6406 16.8633C50.194 16.681 49.8135 16.4281 49.499 16.1045C49.1891 15.7764 48.9499 15.3958 48.7812 14.9629C48.6172 14.5254 48.5352 14.056 48.5352 13.5547V13.2812C48.5352 12.7116 48.6172 12.1943 48.7812 11.7295C48.9453 11.2601 49.1777 10.8568 49.4785 10.5195C49.7793 10.1823 50.1393 9.92253 50.5586 9.74023C50.9779 9.55794 51.4404 9.4668 51.9463 9.4668C52.4704 9.4668 52.9329 9.55566 53.334 9.7334C53.735 9.90658 54.07 10.1527 54.3389 10.4717C54.6077 10.7907 54.8105 11.1735 54.9473 11.6201C55.084 12.0622 55.1523 12.5521 55.1523 13.0898V13.8486H49.3555V12.6045H53.375V12.4678C53.3659 12.1807 53.3112 11.9186 53.2109 11.6816C53.1107 11.4401 52.9557 11.2487 52.7461 11.1074C52.5365 10.9616 52.2653 10.8887 51.9326 10.8887C51.6637 10.8887 51.429 10.9479 51.2285 11.0664C51.0326 11.1803 50.8685 11.3444 50.7363 11.5586C50.6087 11.7682 50.513 12.0189 50.4492 12.3105C50.3854 12.6022 50.3535 12.9258 50.3535 13.2812V13.5547C50.3535 13.8646 50.3945 14.1517 50.4766 14.416C50.5632 14.6803 50.6885 14.9105 50.8525 15.1064C51.0212 15.2979 51.2217 15.4482 51.4541 15.5576C51.6911 15.6624 51.96 15.7148 52.2607 15.7148C52.639 15.7148 52.9808 15.6419 53.2861 15.4961C53.596 15.3457 53.8649 15.1247 54.0928 14.833L55.002 15.7764C54.847 16.0042 54.6374 16.223 54.373 16.4326C54.1133 16.6423 53.7988 16.8132 53.4297 16.9453C53.0605 17.0729 52.6344 17.1367 52.1514 17.1367ZM59.3975 15.7148C59.6527 15.7148 59.8805 15.6647 60.0811 15.5645C60.2816 15.4642 60.4411 15.3229 60.5596 15.1406C60.6826 14.9583 60.7487 14.7464 60.7578 14.5049H62.46C62.4508 15.0062 62.3096 15.4551 62.0361 15.8516C61.7627 16.248 61.3981 16.5625 60.9424 16.7949C60.4912 17.0228 59.9854 17.1367 59.4248 17.1367C58.8551 17.1367 58.3584 17.041 57.9346 16.8496C57.5107 16.6582 57.1576 16.3916 56.875 16.0498C56.597 15.708 56.3874 15.3115 56.2461 14.8604C56.1094 14.4092 56.041 13.9261 56.041 13.4111V13.1924C56.041 12.6774 56.1094 12.1943 56.2461 11.7432C56.3874 11.292 56.597 10.8955 56.875 10.5537C57.1576 10.2119 57.5107 9.94531 57.9346 9.75391C58.3584 9.5625 58.8529 9.4668 59.418 9.4668C60.015 9.4668 60.5391 9.58301 60.9902 9.81543C61.446 10.0479 61.8014 10.376 62.0566 10.7998C62.3164 11.2236 62.4508 11.7227 62.46 12.2969H60.7578C60.7487 12.0326 60.6895 11.7956 60.5801 11.5859C60.4707 11.3763 60.3158 11.2077 60.1152 11.0801C59.9147 10.9525 59.6709 10.8887 59.3838 10.8887C59.0785 10.8887 58.8232 10.9525 58.6182 11.0801C58.4176 11.2077 58.2604 11.3831 58.1465 11.6064C58.0371 11.8252 57.9596 12.0713 57.9141 12.3447C57.873 12.6136 57.8525 12.8962 57.8525 13.1924V13.4111C57.8525 13.7119 57.873 13.999 57.9141 14.2725C57.9596 14.5459 58.0371 14.792 58.1465 15.0107C58.2604 15.2249 58.4176 15.3958 58.6182 15.5234C58.8232 15.651 59.083 15.7148 59.3975 15.7148ZM67.1631 9.60352V10.9023H62.9248V9.60352H67.1631ZM64.0596 7.78516H65.8711V14.8672C65.8711 15.0859 65.9007 15.2546 65.96 15.373C66.0192 15.4915 66.1081 15.5713 66.2266 15.6123C66.3451 15.6533 66.4863 15.6738 66.6504 15.6738C66.7689 15.6738 66.8783 15.667 66.9785 15.6533C67.0788 15.6396 67.1631 15.626 67.2314 15.6123L67.2383 16.9658C67.0879 17.016 66.917 17.057 66.7256 17.0889C66.5387 17.1208 66.3268 17.1367 66.0898 17.1367C65.6842 17.1367 65.3288 17.0684 65.0234 16.9316C64.7181 16.7904 64.4811 16.5648 64.3125 16.2549C64.1439 15.9404 64.0596 15.5257 64.0596 15.0107V7.78516ZM75.8174 13.3701H73.2539V11.8936H75.8174C76.2367 11.8936 76.5762 11.8252 76.8359 11.6885C77.1003 11.5472 77.2939 11.3558 77.417 11.1143C77.54 10.8682 77.6016 10.5879 77.6016 10.2734C77.6016 9.9681 77.54 9.68327 77.417 9.41895C77.2939 9.15462 77.1003 8.94043 76.8359 8.77637C76.5762 8.6123 76.2367 8.53027 75.8174 8.53027H73.8691V17H71.9893V7.04688H75.8174C76.5921 7.04688 77.2529 7.18587 77.7998 7.46387C78.3512 7.7373 78.7705 8.11784 79.0576 8.60547C79.3493 9.08854 79.4951 9.63997 79.4951 10.2598C79.4951 10.9023 79.3493 11.4561 79.0576 11.9209C78.7705 12.3857 78.3512 12.7435 77.7998 12.9941C77.2529 13.2448 76.5921 13.3701 75.8174 13.3701ZM82.6396 11.1143V17H80.835V9.60352H82.5439L82.6396 11.1143ZM84.8887 9.55566L84.8613 11.2373C84.7611 11.2191 84.6471 11.2054 84.5195 11.1963C84.3965 11.1872 84.2803 11.1826 84.1709 11.1826C83.8929 11.1826 83.6491 11.2214 83.4395 11.2988C83.2298 11.3717 83.0544 11.4788 82.9131 11.6201C82.7764 11.7614 82.6715 11.9346 82.5986 12.1396C82.5257 12.3402 82.4847 12.568 82.4756 12.8232L82.0859 12.7754C82.0859 12.306 82.1338 11.8708 82.2295 11.4697C82.3252 11.0687 82.4642 10.7178 82.6465 10.417C82.8288 10.1162 83.0566 9.88379 83.3301 9.71973C83.6081 9.55111 83.9271 9.4668 84.2871 9.4668C84.3874 9.4668 84.4945 9.47591 84.6084 9.49414C84.7269 9.50781 84.8203 9.52832 84.8887 9.55566ZM85.3672 13.377V13.2334C85.3672 12.6911 85.4447 12.1921 85.5996 11.7363C85.7546 11.276 85.9801 10.8773 86.2764 10.54C86.5726 10.2028 86.9349 9.94076 87.3633 9.75391C87.7917 9.5625 88.2793 9.4668 88.8262 9.4668C89.3822 9.4668 89.8743 9.5625 90.3027 9.75391C90.7357 9.94076 91.1003 10.2028 91.3965 10.54C91.6927 10.8773 91.9183 11.276 92.0732 11.7363C92.2282 12.1921 92.3057 12.6911 92.3057 13.2334V13.377C92.3057 13.9147 92.2282 14.4137 92.0732 14.874C91.9183 15.3298 91.6927 15.7285 91.3965 16.0703C91.1003 16.4076 90.738 16.6696 90.3096 16.8564C89.8812 17.0433 89.3913 17.1367 88.8398 17.1367C88.293 17.1367 87.8031 17.0433 87.3701 16.8564C86.9372 16.6696 86.5726 16.4076 86.2764 16.0703C85.9801 15.7285 85.7546 15.3298 85.5996 14.874C85.4447 14.4137 85.3672 13.9147 85.3672 13.377ZM87.1719 13.2334V13.377C87.1719 13.7005 87.2038 14.0036 87.2676 14.2861C87.3314 14.5687 87.4294 14.8171 87.5615 15.0312C87.6937 15.2454 87.8646 15.4141 88.0742 15.5371C88.2884 15.6556 88.5436 15.7148 88.8398 15.7148C89.1315 15.7148 89.3822 15.6556 89.5918 15.5371C89.8014 15.4141 89.9723 15.2454 90.1045 15.0312C90.2412 14.8171 90.3415 14.5687 90.4053 14.2861C90.4691 14.0036 90.501 13.7005 90.501 13.377V13.2334C90.501 12.9144 90.4691 12.6159 90.4053 12.3379C90.3415 12.0553 90.2412 11.807 90.1045 11.5928C89.9723 11.374 89.7992 11.2031 89.585 11.0801C89.3753 10.9525 89.1224 10.8887 88.8262 10.8887C88.5345 10.8887 88.2839 10.9525 88.0742 11.0801C87.8646 11.2031 87.6937 11.374 87.5615 11.5928C87.4294 11.807 87.3314 12.0553 87.2676 12.3379C87.2038 12.6159 87.1719 12.9144 87.1719 13.2334ZM98.0547 15.4277V6.5H99.873V17H98.2324L98.0547 15.4277ZM93.3037 13.3906V13.2471C93.3037 12.682 93.3675 12.1693 93.4951 11.709C93.6273 11.2441 93.8187 10.8454 94.0693 10.5127C94.32 10.18 94.623 9.92253 94.9785 9.74023C95.3385 9.55794 95.7464 9.4668 96.2021 9.4668C96.6442 9.4668 97.0293 9.55566 97.3574 9.7334C97.6901 9.91113 97.9727 10.1641 98.2051 10.4922C98.4421 10.8203 98.6312 11.21 98.7725 11.6611C98.9137 12.1077 99.0163 12.5999 99.0801 13.1377V13.5273C99.0163 14.0514 98.9137 14.5322 98.7725 14.9697C98.6312 15.4072 98.4421 15.79 98.2051 16.1182C97.9727 16.4417 97.6901 16.6924 97.3574 16.8701C97.0247 17.0479 96.6351 17.1367 96.1885 17.1367C95.7373 17.1367 95.3317 17.0433 94.9717 16.8564C94.6162 16.6696 94.3132 16.4076 94.0625 16.0703C93.8164 15.7331 93.6273 15.3366 93.4951 14.8809C93.3675 14.4251 93.3037 13.9284 93.3037 13.3906ZM95.1152 13.2471V13.3906C95.1152 13.7096 95.1426 14.0081 95.1973 14.2861C95.252 14.5641 95.3408 14.8102 95.4639 15.0244C95.5869 15.234 95.7441 15.3981 95.9355 15.5166C96.1315 15.6351 96.3685 15.6943 96.6465 15.6943C97.002 15.6943 97.2936 15.6169 97.5215 15.4619C97.7539 15.3024 97.9339 15.0859 98.0615 14.8125C98.1891 14.5345 98.2712 14.2223 98.3076 13.876V12.8027C98.2894 12.5293 98.2415 12.2764 98.1641 12.0439C98.0911 11.8115 97.9863 11.611 97.8496 11.4424C97.7174 11.2738 97.5534 11.1416 97.3574 11.0459C97.1615 10.9502 96.929 10.9023 96.6602 10.9023C96.3822 10.9023 96.1452 10.9639 95.9492 11.0869C95.7533 11.2054 95.5938 11.3717 95.4707 11.5859C95.3477 11.8001 95.2565 12.0485 95.1973 12.3311C95.1426 12.6136 95.1152 12.9189 95.1152 13.2471ZM105.909 15.2432V9.60352H107.728V17H106.019L105.909 15.2432ZM106.142 13.7119L106.702 13.6982C106.702 14.195 106.647 14.653 106.538 15.0723C106.429 15.4915 106.258 15.8561 106.025 16.166C105.798 16.4714 105.508 16.7106 105.157 16.8838C104.806 17.0524 104.392 17.1367 103.913 17.1367C103.549 17.1367 103.216 17.0866 102.915 16.9863C102.614 16.8815 102.354 16.7197 102.136 16.501C101.922 16.2777 101.755 15.9928 101.637 15.6465C101.518 15.2956 101.459 14.874 101.459 14.3818V9.60352H103.264V14.3955C103.264 14.6416 103.291 14.8467 103.346 15.0107C103.405 15.1748 103.485 15.3092 103.585 15.4141C103.69 15.5143 103.811 15.5872 103.947 15.6328C104.089 15.6738 104.239 15.6943 104.398 15.6943C104.836 15.6943 105.18 15.6077 105.431 15.4346C105.686 15.2568 105.868 15.0199 105.978 14.7236C106.087 14.4229 106.142 14.0856 106.142 13.7119ZM112.362 15.7148C112.618 15.7148 112.845 15.6647 113.046 15.5645C113.246 15.4642 113.406 15.3229 113.524 15.1406C113.647 14.9583 113.714 14.7464 113.723 14.5049H115.425C115.416 15.0062 115.274 15.4551 115.001 15.8516C114.728 16.248 114.363 16.5625 113.907 16.7949C113.456 17.0228 112.95 17.1367 112.39 17.1367C111.82 17.1367 111.323 17.041 110.899 16.8496C110.476 16.6582 110.122 16.3916 109.84 16.0498C109.562 15.708 109.352 15.3115 109.211 14.8604C109.074 14.4092 109.006 13.9261 109.006 13.4111V13.1924C109.006 12.6774 109.074 12.1943 109.211 11.7432C109.352 11.292 109.562 10.8955 109.84 10.5537C110.122 10.2119 110.476 9.94531 110.899 9.75391C111.323 9.5625 111.818 9.4668 112.383 9.4668C112.98 9.4668 113.504 9.58301 113.955 9.81543C114.411 10.0479 114.766 10.376 115.021 10.7998C115.281 11.2236 115.416 11.7227 115.425 12.2969H113.723C113.714 12.0326 113.654 11.7956 113.545 11.5859C113.436 11.3763 113.281 11.2077 113.08 11.0801C112.88 10.9525 112.636 10.8887 112.349 10.8887C112.043 10.8887 111.788 10.9525 111.583 11.0801C111.382 11.2077 111.225 11.3831 111.111 11.6064C111.002 11.8252 110.924 12.0713 110.879 12.3447C110.838 12.6136 110.817 12.8962 110.817 13.1924V13.4111C110.817 13.7119 110.838 13.999 110.879 14.2725C110.924 14.5459 111.002 14.792 111.111 15.0107C111.225 15.2249 111.382 15.3958 111.583 15.5234C111.788 15.651 112.048 15.7148 112.362 15.7148ZM120.128 9.60352V10.9023H115.89V9.60352H120.128ZM117.024 7.78516H118.836V14.8672C118.836 15.0859 118.866 15.2546 118.925 15.373C118.984 15.4915 119.073 15.5713 119.191 15.6123C119.31 15.6533 119.451 15.6738 119.615 15.6738C119.734 15.6738 119.843 15.667 119.943 15.6533C120.044 15.6396 120.128 15.626 120.196 15.6123L120.203 16.9658C120.053 17.016 119.882 17.057 119.69 17.0889C119.504 17.1208 119.292 17.1367 119.055 17.1367C118.649 17.1367 118.294 17.0684 117.988 16.9316C117.683 16.7904 117.446 16.5648 117.277 16.2549C117.109 15.9404 117.024 15.5257 117.024 15.0107V7.78516Z" fill="#0C97E6"/>
<circle cx="9.99997" cy="12.0002" r="8.88889" fill="#E6F6FF"/>
<path d="M13.3337 8.6665L6.66699 15.3332M6.66699 8.6665L13.3337 15.3332" stroke="#0C97E6" stroke-width="1.5" stroke-linecap="round" stroke-linejoin="round"/>
</svg>
