<svg width="16" height="16" viewBox="0 0 16 16" fill="none" xmlns="http://www.w3.org/2000/svg">
<path d="M13.0909 1.44445H3.09091L3.09089 7.37041H13.0909C13.3111 7.37041 13.5106 7.26219 13.5937 7.0961C13.6797 6.93001 13.6321 6.73905 13.4758 6.61173L10.7706 4.40743L13.4766 2.20313C13.6328 2.07582 13.6783 1.88485 13.5945 1.71876C13.5107 1.55266 13.3111 1.44445 13.0909 1.44445Z" fill="#F04438"/>
<path d="M2 13.8889C2 14.1349 2.2436 14.3334 2.54545 14.3334C2.84731 14.3334 3.09089 14.1349 3.09089 13.8889V7.37041L3.09091 1.44445C3.09091 1.19849 2.84731 1 2.54545 1C2.2436 1 2 1.19849 2 1.44445V13.8889Z" fill="#344054"/>
</svg>
