<svg width="24" height="24" viewBox="0 0 24 24" fill="none" xmlns="http://www.w3.org/2000/svg">
<g id="trash-2">
<path id="Icon" d="M5 8H6.5M6.5 8H18.5M6.5 8V18.5C6.5 18.8978 6.65804 19.2794 6.93934 19.5607C7.22065 19.842 7.60218 20 8 20H15.5C15.8978 20 16.2794 19.842 16.5607 19.5607C16.842 19.2794 17 18.8978 17 18.5V8H6.5ZM8.75 8V6.5C8.75 6.10218 8.90804 5.72064 9.18934 5.43934C9.47065 5.15804 9.85218 5 10.25 5H13.25C13.6478 5 14.0294 5.15804 14.3107 5.43934C14.592 5.72064 14.75 6.10218 14.75 6.5V8M10.25 11.75V16.25M13.25 11.75V16.25" stroke="#A2ACC0" stroke-width="1.5" stroke-linecap="round" stroke-linejoin="round"/>
</g>
</svg>
