<svg width="24" height="24" viewBox="0 0 24 24" fill="none" xmlns="http://www.w3.org/2000/svg">
<rect width="24" height="24" rx="12" fill="#FBE7E7"/>
<path d="M17.9846 6.92778H8.53128L8.53126 12.6315H17.9846C18.1927 12.6315 18.3814 12.5273 18.46 12.3675C18.5412 12.2076 18.4962 12.0238 18.3485 11.9013L15.7911 9.77964L18.3492 7.65801C18.4969 7.53548 18.5399 7.35166 18.4607 7.1918C18.3814 7.03194 18.1928 6.92778 17.9846 6.92778Z" fill="#9AA6BB"/>
<path d="M7.5 18.9056C7.5 19.1423 7.73028 19.3333 8.01564 19.3333C8.30099 19.3333 8.53126 19.1423 8.53126 18.9056V12.6315L8.53128 6.92778C8.53128 6.69105 8.30099 6.5 8.01564 6.5C7.73028 6.5 7.5 6.69105 7.5 6.92778V18.9056Z" fill="#344054"/>
</svg>
