<svg width="84" height="84" viewBox="0 0 84 84" fill="none" xmlns="http://www.w3.org/2000/svg">
<g id="Frame">
<g id="Group">
<path id="Vector" fill-rule="evenodd" clip-rule="evenodd" d="M42 2.625C20.2676 2.625 2.625 20.2676 2.625 42C2.625 63.7324 20.2676 81.375 42 81.375C42.4589 81.376 42.9099 81.2555 43.3073 81.0259L43.365 80.9918L43.3886 80.9786C43.4733 80.9257 43.5548 80.8678 43.6328 80.8054L43.6459 80.7949C44.0706 80.455 44.3792 79.9914 44.5287 79.4684C44.6783 78.9453 44.6615 78.3887 44.4807 77.8757C44.2999 77.3626 43.9639 76.9185 43.5195 76.6048C43.075 76.2911 42.544 76.1235 42 76.125C40.2859 76.125 38.682 75.3165 37.1936 73.9777C33.6814 70.8199 30.891 65.0239 29.2346 57.75H44.625C45.3212 57.75 45.9889 57.4734 46.4812 56.9812C46.9734 56.4889 47.25 55.8212 47.25 55.125C47.25 54.4288 46.9734 53.7611 46.4812 53.2688C45.9889 52.7766 45.3212 52.5 44.625 52.5H28.2765C27.8119 49.1846 27.5625 45.6566 27.5625 42C27.5625 38.3434 27.8171 34.8154 28.2896 31.5H55.7051C55.9571 33.2535 56.1461 35.0648 56.2695 36.9232C56.3666 38.3696 57.6188 39.4642 59.0625 39.3698C60.5089 39.2726 61.6035 38.0205 61.509 36.5768C61.3963 34.8794 61.2273 33.1862 61.0024 31.5H74.4765C75.5475 34.8075 76.125 38.3355 76.125 42C76.125 45.6619 75.5475 49.1925 74.4765 52.5H72.1875C71.4913 52.5 70.8236 52.7766 70.3314 53.2688C69.8391 53.7611 69.5625 54.4288 69.5625 55.125C69.5625 55.8212 69.8391 56.4889 70.3314 56.9812C70.8236 57.4734 71.4913 57.75 72.1875 57.75H72.2768C71.9513 58.3695 71.61 58.9785 71.2504 59.5744C70.8911 60.171 70.7836 60.8859 70.9515 61.5618C71.1194 62.2377 71.5489 62.8193 72.1455 63.1785C72.7421 63.5377 73.457 63.6452 74.133 63.4774C74.8089 63.3095 75.3904 62.88 75.7496 62.2834C79.44 56.162 81.3854 49.1477 81.375 42C81.375 20.2676 63.7324 2.625 42 2.625ZM23.9269 57.75H11.7233C15.6932 65.3541 22.3709 71.1925 30.4369 74.1116C27.636 70.0534 25.3523 64.3939 23.9269 57.75ZM23.0003 31.5H9.5235C8.4525 34.8075 7.875 38.3355 7.875 42C7.875 45.6645 8.4525 49.1925 9.5235 52.5H23.0108C22.5566 49.161 22.3125 45.6409 22.3125 42C22.3125 38.3591 22.554 34.8364 23.0003 31.5ZM30.4001 9.9015C22.3501 12.8253 15.6869 18.6578 11.7233 26.25H23.9059C25.2026 20.1338 27.2239 14.8654 29.7071 10.941C29.9355 10.584 30.1639 10.2375 30.4001 9.9015ZM42 7.875C39.0023 7.875 36.393 10.1981 34.1434 13.7498C32.0801 17.0074 30.4054 21.2914 29.2635 26.25H54.7339C53.4686 20.748 51.5524 16.0781 49.1741 12.7312C47.0768 9.77812 44.6906 7.875 42 7.875ZM53.6025 9.9015C56.4034 13.9256 58.6819 19.5851 60.0968 26.25H72.2768C68.3119 18.6597 61.6504 12.8278 53.6025 9.9015Z" fill="#171B1B"/>
<path id="Vector_2" fill-rule="evenodd" clip-rule="evenodd" d="M50.7078 38.4064L34.8843 70.0508C34.2853 71.2515 34.0029 72.5854 34.0638 73.9259C34.1247 75.2664 34.5269 76.5691 35.2322 77.7106C35.9376 78.8521 36.9228 79.7946 38.0944 80.4488C39.266 81.1029 40.5853 81.447 41.9272 81.4485H73.5742C74.9166 81.4485 76.2367 81.1053 77.4091 80.4515C78.5816 79.7977 79.5675 78.8551 80.2731 77.7131C80.9788 76.5711 81.3808 75.2677 81.441 73.9266C81.5012 72.5856 81.2175 71.2514 80.617 70.0508L64.7935 38.4064C64.1393 37.0987 63.134 35.999 61.8901 35.2304C60.6462 34.4618 59.2129 34.0547 57.7507 34.0547C56.2885 34.0547 54.8551 34.4618 53.6112 35.2304C52.3673 35.999 51.362 37.0987 50.7078 38.4064ZM55.4039 40.7532C55.6208 40.3161 55.9553 39.9483 56.37 39.6912C56.7846 39.4341 57.2628 39.2978 57.7507 39.2978C58.2385 39.2978 58.7167 39.4341 59.1313 39.6912C59.546 39.9483 59.8806 40.3161 60.0974 40.7532L75.9209 72.4001C76.1208 72.8003 76.2152 73.2448 76.1951 73.6916C76.175 74.1385 76.041 74.5727 75.8059 74.9532C75.5708 75.3338 75.2424 75.6479 74.8518 75.8658C74.4612 76.0838 74.0214 76.1983 73.5742 76.1985H41.9272C41.4799 76.1983 41.0401 76.0838 40.6495 75.8658C40.2589 75.6479 39.9305 75.3338 39.6954 74.9532C39.4603 74.5727 39.3263 74.1385 39.3062 73.6916C39.2861 73.2448 39.3805 72.8003 39.5804 72.4001L55.4039 40.7532ZM57.7507 68.25C58.4468 68.25 59.1145 68.5266 59.6068 69.0189C60.0991 69.5112 60.3757 70.1788 60.3757 70.875C60.3757 71.5712 60.0991 72.2389 59.6068 72.7312C59.1145 73.2235 58.4468 73.5 57.7507 73.5C57.0545 73.5 56.3868 73.2235 55.8945 72.7312C55.4022 72.2389 55.1257 71.5712 55.1257 70.875C55.1257 70.1788 55.4022 69.5112 55.8945 69.0189C56.3868 68.5266 57.0545 68.25 57.7507 68.25ZM55.1257 49.875V63C55.1257 63.6962 55.4022 64.3639 55.8945 64.8562C56.3868 65.3485 57.0545 65.625 57.7507 65.625C58.4468 65.625 59.1145 65.3485 59.6068 64.8562C60.0991 64.3639 60.3757 63.6962 60.3757 63V49.875C60.3757 49.1788 60.0991 48.5112 59.6068 48.0189C59.1145 47.5266 58.4468 47.25 57.7507 47.25C57.0545 47.25 56.3868 47.5266 55.8945 48.0189C55.4022 48.5112 55.1257 49.1788 55.1257 49.875Z" fill="#F04438"/>
</g>
</g>
</svg>
